<?xml version="1.0" encoding="utf-8"?>
<?xml-stylesheet type="text/xsl" href="rss1.xsl"?>
<rss version="2.0" xmlns:atom="http://www.w3.org/2005/Atom" xmlns:content="http://purl.org/rss/1.0/modules/content/" xmlns:dc="http://purl.org/dc/elements/1.1/" xmlns:media="http://search.yahoo.com/mrss/">
<channel>
 <title>Getty</title>
 <link>http://www.gettyimg.com/</link>
 <atom:link href="http://www.gettyimg.com/" rel="self" type="application/rss+xml" />

 
                <item>
                <title><![CDATA[【Albums (lossy)】Dolby Atmos - LIGHTSUM - Into The Light (EP) [E-AC3-JOC | 16bits/48kHz | DD+ w/DA| 768kbits]]]></title>
                <link><![CDATA[https://sharemania.us/threads/lightsum-into-the-light-ep-e-ac3-joc-16bits-48khz-dd-w-da-768kbits.247597/]]></link>
                <description><![CDATA[<article>
<blockquote class="messageText SelectQuoteContainer ugc baseHtml">
<img src="https://a5.mzstatic.com/us/r1000/0/Music122/v4/35/1c/bf/351cbfe0-08d2-f86f-3990-2e794cc2e2d0/8804775251306_Cover.jpg" class="bbCodeImage LbImage" alt="[​IMG]" data-url="https://a5.mzstatic.com/us/r1000/0/Music122/v4/35/1c/bf/351cbfe0-08d2-f86f-3990-2e794cc2e2d0/8804775251306_Cover.jpg" style=""> <br>
<div style="text-align: center"><img src="https://bendodson.s3-eu-west-1.amazonaws.com/apple-music/dolby-atmos.png" class="bbCodeImage LbImage" alt="[​IMG]" data-url="https://bendodson.s3-eu-west-1.amazonaws.com/apple-music/dolby-atmos.png" style="">​</div><img src="https://i.imgur.com/WpUgB4J.jpeg" class="bbCodeImage LbImage" alt="[​IMG]" data-url="https://i.imgur.com/WpUgB4J.jpeg" style=""> <br>
<div style="text-align: center"><span style="font-size: 18px"><b>Artist:</b> PIXY<br>
<b>Album: </b>The Voice - EP<br>
<b>Year:</b> 2022<br>
<b>Source: <span style="color: rgb(255, 0, 0)"><span style="text-decoration: underline">Apple Music</span></span></b><br>
<b><b>Genre:</b> </b>K-Pop<br>
<b>Format</b>: .m4a Enhanced AC-3 with Joint Object Coding | Dolby Digital Plus with Dolby Atmos<br>
<b>Bitrate:</b> 768kb/s | 48kHz</span>​</div><img src="https://i.imgur.com/WpUgB4J.jpeg" class="bbCodeImage LbImage" alt="[​IMG]" data-url="https://i.imgur.com/WpUgB4J.jpeg" style=""> <br>
<div style="text-align: center"><b><span style="text-decoration: underline"><span style="font-size: 18px">TRACKLIST:</span></span></b><br>
01. ALIVE | 3 min 6 sec<br>
02. i | 2 min 52 sec<br>
03. GOOD NEWS | 3 min 24 sec<br>
04. Q | 2 min 43 sec<br>
05. Bye Bye Love | 3 min 18 sec<br>
<br>
<b><i><span style="text-decoration: underline"><span style="font-size: 18px">DOWNLOAD:</span></span></i></b><br>
<div class="bbCodeBlock bbCodeVfcHH HiddenContent">
<div class="attribution type">Hidden Content:</div>
<blockquote>You must reply before you can see the hidden data contained here.</blockquote>
</div></div><img src="https://i.imgur.com/WpUgB4J.jpeg" class="bbCodeImage LbImage" alt="[​IMG]" data-url="https://i.imgur.com/WpUgB4J.jpeg" style=""> <br>
<img src="https://i.imgur.com/f74yHfr.jpeg" class="bbCodeImage LbImage" alt="[​IMG]" data-url="https://i.imgur.com/f74yHfr.jpeg" style="">
<div class="messageTextEndMarker">&nbsp;</div>
</blockquote>
</article>]]></description>
                <author><![CDATA[ivan26XDead]]></author>
                </item>

                
                <item>
                <title><![CDATA[【Cinema Center】MOVIE - Mickeys.House.of.Villains.2002.1080p.AMZN.WEB-DL.MULTi.H264-Sebastian09]]></title>
                <link><![CDATA[https://sharemania.us/threads/mickeys-house-of-villains-2002-1080p-amzn-web-dl-multi-h264-sebastian09.247596/]]></link>
                <description><![CDATA[<article>
<blockquote class="messageText SelectQuoteContainer ugc baseHtml">
General<br>
Unique ID : 134407102045573244389869913189325647965 (0x651DDDC3013E9347E3DCD236FBA2B05D)<br>
Complete name : Mickeys.House.of.Villains.2002.1080p.AMZN.WEB-DL.MULTi.H264-Sebastian09.mkv<br>
Format : Matroska<br>
Format version : Version 4<br>
File size : 3.84 GiB<br>
Duration : 1 h 8 min<br>
Overall bit rate : 8 084 kb/s<br>
Frame rate : 23.976 FPS<br>
Encoded date : 2024-06-10 08:20:57 UTC<br>
Writing application : mkvmerge v82.0 ('I'm The President') 64-bit<br>
Writing library : libebml v1.4.5 + libmatroska v1.7.1<br>
<br>
Video<br>
ID : 1<br>
Format : AVC<br>
Format/Info : Advanced Video Codec<br>
Format profile : High@L4<br>
Format settings : CABAC / 4 Ref Frames<br>
Format settings, CABAC : Yes<br>
Format settings, Reference frames : 4 frames<br>
Codec ID : V_MPEG4/ISO/AVC<br>
Duration : 1 h 8 min<br>
Bit rate mode : Constant<br>
Bit rate : 7 633 kb/s<br>
Nominal bit rate : 10 000 kb/s<br>
Width : 1 920 pixels<br>
Height : 1 080 pixels<br>
Display aspect ratio : 16:9<br>
Frame rate mode : Constant<br>
Frame rate : 23.976 (24000/1001) FPS<br>
Color space : YUV<br>
Chroma subsampling : 4:2:0<br>
Bit depth : 8 bits<br>
Scan type : Progressive<br>
Bits/(Pixel*Frame) : 0.154<br>
Stream size : 3.63 GiB (94%)<br>
Default : Yes<br>
Forced : No<br>
Color range : Limited<br>
Color primaries : BT.709<br>
Transfer characteristics : BT.709<br>
Matrix coefficients : BT.709<br>
<br>
Audio #1<br>
ID : 2<br>
Format : E-AC-3<br>
Format/Info : Enhanced AC-3<br>
Commercial name : Dolby Digital Plus<br>
Codec ID : A_EAC3<br>
Duration : 1 h 8 min<br>
Bit rate mode : Constant<br>
Bit rate : 224 kb/s<br>
Channel(s) : 2 channels<br>
Channel layout : L R<br>
Sampling rate : 48.0 kHz<br>
Frame rate : 31.250 FPS (1536 SPF)<br>
Compression mode : Lossy<br>
Stream size : 109 MiB (3%)<br>
Title : Polski<br>
Language : Polish<br>
Service kind : Complete Main<br>
Default : Yes<br>
Forced : No<br>
Dialog Normalization : -31 dB<br>
compr : -0.28 dB<br>
dsurmod : Not Dolby Surround encoded<br>
dialnorm_Average : -31 dB<br>
dialnorm_Minimum : -31 dB<br>
dialnorm_Maximum : -31 dB<br>
<br>
Audio #2<br>
ID : 3<br>
Format : E-AC-3<br>
Format/Info : Enhanced AC-3<br>
Commercial name : Dolby Digital Plus<br>
Codec ID : A_EAC3<br>
Duration : 1 h 8 min<br>
Bit rate mode : Constant<br>
Bit rate : 224 kb/s<br>
Channel(s) : 2 channels<br>
Channel layout : L R<br>
Sampling rate : 48.0 kHz<br>
Frame rate : 31.250 FPS (1536 SPF)<br>
Compression mode : Lossy<br>
Stream size : 109 MiB (3%)<br>
Title : English<br>
Language : English<br>
Service kind : Complete Main<br>
Default : No<br>
Forced : No<br>
Dialog Normalization : -31 dB<br>
compr : -0.28 dB<br>
dsurmod : Not Dolby Surround encoded<br>
dialnorm_Average : -31 dB<br>
dialnorm_Minimum : -31 dB<br>
dialnorm_Maximum : -31 dB<br>
<br>
Text<br>
ID : 4<br>
Format : UTF-8<br>
Codec ID : S_TEXT/UTF8<br>
Codec ID/Info : UTF-8 Plain Text<br>
Duration : 1 h 4 min<br>
Bit rate : 46 b/s<br>
Frame rate : 0.221 FPS<br>
Count of elements : 850<br>
Stream size : 21.9 KiB (0%)<br>
Title : English [CC]<br>
Language : English<br>
Default : No<br>
Forced : No<br>
<div class="bbCodeBlock bbCodeVfcHH HiddenContent">
<div class="attribution type">Hidden Content:</div>
<blockquote>You must reply before you can see the hidden data contained here.</blockquote>
</div>
<div class="messageTextEndMarker">&nbsp;</div>
</blockquote>
</article>]]></description>
                <author><![CDATA[BestBoy_PL]]></author>
                </item>

                </channel></rss>